# xmcd
#
# Track frame offsets:
#	150
#	10180
#	21020
#	34747
#	47684
#	58674
#	73505
#	88116
#	99646
#	118164
#	133291
#	143872
#	156819
#	174724
#	184107
#	197663
#	215092
#	234616
#	250587
#	268097
#
# Disc length: 3756 seconds
#
# Revision: 1
# Processed by: cddbd v1.5.2PL0 Copyright (c) Steve Scherf et al.
# Submitted via: audiograbber 1.83.01
#
DISCID=260eaa14
DTITLE=The Greatest Country Music Recordings Of All Time - Record 45 and 46
DYEAR=1900
DGENRE=
TTITLE0=Willie Nelson - Touch Me
TTITLE1=Willie Nelson - Hello Walls
TTITLE2=Willie Nelson - Funny How Time Slips Away
TTITLE3=Willie Nelson - Crazy
TTITLE4=Willie Nelson - Night Life
TTITLE5=Willie Nelson - Bloody Mary Morning
TTITLE6=Willie Nelson - Yesterday's Wine
TTITLE7=Willie Nelson - Bubbles In My Beer
TTITLE8=Willie Nelson - Whiskey River
TTITLE9=Willie Nelson - It's Not Supposed To Be That Way
TTITLE10=Willie Nelson - Blue Eyes Crying In The Rain
TTITLE11=Willie Nelson - Remember Me
TTITLE12=Willie Nelson - Healing Hands Of Time
TTITLE13=Willie Nelson - If You Got The Money, I've Got The Time
TTITLE14=Willie Nelson - I Love You A Thousand Ways
TTITLE15=Willie Nelson - Stardust
TTITLE16=Willie Nelson - Georgia On My Mind
TTITLE17=Willie Nelson - Blue Skies
TTITLE18=Willie Nelson - Faded Love (with Ray Price)
TTITLE19=Willie Nelson - My Heroes Have Always Been Cowboys
EXTD=
EXTT0=
EXTT1=
EXTT2=
EXTT3=
EXTT4=
EXTT5=
EXTT6=
EXTT7=
EXTT8=
EXTT9=
EXTT10=
EXTT11=
EXTT12=
EXTT13=
EXTT14=
EXTT15=
EXTT16=
EXTT17=
EXTT18=
EXTT19=
PLAYORDER=
